<!-- Generator: Adobe Illustrator 18.1.1, SVG Export Plug-In  -->
<svg version="1.1"
	 xmlns="http://www.w3.org/2000/svg" xmlns:xlink="http://www.w3.org/1999/xlink" xmlns:a="http://ns.adobe.com/AdobeSVGViewerExtensions/3.0/"
	 x="0px" y="0px" width="241.9px" height="42.8px" viewBox="0 0 241.9 42.8" enable-background="new 0 0 241.9 42.8"
	 xml:space="preserve">
<defs>
</defs>
<g>
	<path fill="#FFFFFF" d="M62.5,33.8V17.2H72v1.4h-7.9v5.8h7.1v1.4h-7.1v6.6h8.5v1.4H62.5z"/>
	<path fill="#FFFFFF" d="M85.1,32.4v1.4h-9.4V17.2h1.6v15.1H85.1z"/>
	<path fill="#FFFFFF" d="M87.7,33.8V17.2h9.5v1.4h-7.9v5.8h7.1v1.4h-7.1v6.6h8.5v1.4H87.7z"/>
	<path fill="#FFFFFF" d="M107.4,34.1c-1.1,0-2.1-0.2-3-0.6c-0.9-0.4-1.7-0.9-2.4-1.7c-0.7-0.7-1.2-1.6-1.6-2.7
		c-0.4-1.1-0.6-2.3-0.6-3.7s0.2-2.6,0.6-3.7c0.4-1.1,1-2,1.7-2.7c0.7-0.7,1.5-1.3,2.4-1.7c0.9-0.4,1.9-0.6,2.9-0.6
		c0.6,0,1.2,0,1.7,0.1c0.5,0.1,1,0.2,1.3,0.3c0.4,0.1,0.7,0.2,1,0.4c0.3,0.1,0.5,0.2,0.6,0.3l-0.5,1.4c-0.4-0.2-0.9-0.5-1.5-0.7
		s-1.4-0.3-2.3-0.3c-1,0-1.9,0.2-2.7,0.5c-0.8,0.4-1.4,0.8-1.9,1.5c-0.5,0.6-0.9,1.4-1.2,2.3c-0.3,0.9-0.4,1.8-0.4,2.9
		c0,1.1,0.1,2.1,0.4,3c0.3,0.9,0.6,1.6,1.2,2.3c0.5,0.6,1.1,1.1,1.9,1.4c0.7,0.3,1.6,0.5,2.5,0.5c1,0,1.9-0.1,2.6-0.3
		c0.7-0.2,1.2-0.4,1.6-0.6l0.5,1.4c-0.1,0.1-0.3,0.2-0.6,0.3c-0.3,0.1-0.6,0.2-1,0.3c-0.4,0.1-0.9,0.2-1.4,0.3
		C108.7,34.1,108.1,34.1,107.4,34.1z"/>
	<path fill="#FFFFFF" d="M126,17.2v1.4h-5.3v15.1H119V18.7h-5.3v-1.4H126z"/>
	<path fill="#FFFFFF" d="M139.6,22.2c0,1.2-0.3,2.2-1,2.9c-0.7,0.7-1.5,1.2-2.6,1.6c0.3,0.3,0.6,0.7,1,1.3c0.4,0.5,0.8,1.1,1.3,1.8
		c0.4,0.6,0.9,1.3,1.3,2c0.4,0.7,0.8,1.4,1,2h-1.7c-0.3-0.6-0.7-1.3-1.1-1.9c-0.4-0.6-0.8-1.3-1.2-1.8c-0.4-0.6-0.8-1.1-1.2-1.7
		c-0.4-0.5-0.7-1-1-1.3c-0.5,0-1,0.1-1.5,0.1h-2.7v6.7h-1.6V17.6c0.6-0.2,1.2-0.3,2-0.3s1.5-0.1,2.1-0.1c2.3,0,4,0.4,5.1,1.3
		C139,19.3,139.6,20.5,139.6,22.2z M132.9,18.5c-0.6,0-1.1,0-1.6,0.1c-0.5,0-0.8,0.1-1.1,0.1v7h2.2c0.7,0,1.5,0,2.1-0.1
		c0.7-0.1,1.2-0.2,1.7-0.5c0.5-0.2,0.9-0.6,1.2-1.1c0.3-0.5,0.4-1.1,0.4-1.9c0-0.7-0.1-1.3-0.4-1.8c-0.3-0.5-0.7-0.9-1.1-1.1
		c-0.5-0.3-1-0.5-1.6-0.6C134.1,18.6,133.5,18.5,132.9,18.5z"/>
	<path fill="#FFFFFF" d="M143.3,17.2h1.6v16.5h-1.6V17.2z"/>
	<path fill="#FFFFFF" d="M156.1,34.1c-1.1,0-2.1-0.2-3-0.6c-0.9-0.4-1.7-0.9-2.4-1.7c-0.7-0.7-1.2-1.6-1.6-2.7
		c-0.4-1.1-0.6-2.3-0.6-3.7s0.2-2.6,0.6-3.7c0.4-1.1,1-2,1.7-2.7c0.7-0.7,1.5-1.3,2.4-1.7c0.9-0.4,1.9-0.6,2.9-0.6
		c0.6,0,1.2,0,1.7,0.1c0.5,0.1,1,0.2,1.3,0.3c0.4,0.1,0.7,0.2,1,0.4c0.3,0.1,0.5,0.2,0.6,0.3l-0.5,1.4c-0.4-0.2-0.9-0.5-1.5-0.7
		s-1.4-0.3-2.3-0.3c-1,0-1.9,0.2-2.7,0.5c-0.8,0.4-1.4,0.8-1.9,1.5c-0.5,0.6-0.9,1.4-1.2,2.3c-0.3,0.9-0.4,1.8-0.4,2.9
		c0,1.1,0.1,2.1,0.4,3c0.3,0.9,0.6,1.6,1.2,2.3c0.5,0.6,1.1,1.1,1.9,1.4c0.7,0.3,1.6,0.5,2.5,0.5c1,0,1.9-0.1,2.6-0.3
		c0.7-0.2,1.2-0.4,1.6-0.6l0.5,1.4c-0.1,0.1-0.3,0.2-0.6,0.3c-0.3,0.1-0.6,0.2-1,0.3c-0.4,0.1-0.9,0.2-1.4,0.3
		C157.3,34.1,156.7,34.1,156.1,34.1z"/>
	<path fill="#FFFFFF" d="M173.4,30.9c0.5,0,1,0,1.3-0.1c0.3-0.1,0.6-0.2,0.8-0.4c0.2-0.2,0.3-0.3,0.4-0.5c0.1-0.2,0.1-0.4,0.1-0.7
		c0-0.5-0.3-1-0.8-1.3c-0.5-0.4-1.4-0.7-2.6-1.2c-0.5-0.2-1.1-0.4-1.6-0.7c-0.5-0.2-1-0.6-1.5-0.9c-0.4-0.4-0.8-0.8-1-1.4
		c-0.3-0.5-0.4-1.2-0.4-1.9s0.1-1.5,0.4-2.1c0.3-0.6,0.7-1.1,1.2-1.6c0.5-0.4,1.2-0.8,1.9-1c0.7-0.2,1.6-0.3,2.5-0.3
		c1.1,0,2.1,0.1,2.9,0.4c0.8,0.2,1.5,0.5,2,0.8l-1.1,2.9c-0.5-0.2-1-0.4-1.5-0.6c-0.6-0.2-1.2-0.3-2-0.3c-0.9,0-1.5,0.1-1.9,0.4
		S172,21,172,21.5c0,0.3,0.1,0.6,0.2,0.8c0.1,0.2,0.3,0.4,0.6,0.6c0.3,0.2,0.6,0.3,0.9,0.5c0.3,0.1,0.7,0.3,1.1,0.4
		c0.9,0.3,1.6,0.6,2.2,0.9c0.6,0.3,1.2,0.7,1.6,1.1c0.4,0.4,0.7,0.9,0.9,1.5c0.2,0.6,0.3,1.2,0.3,2c0,1.5-0.5,2.7-1.6,3.6
		c-1.1,0.9-2.7,1.3-4.9,1.3c-0.7,0-1.4,0-2-0.1s-1.1-0.2-1.6-0.3c-0.5-0.1-0.8-0.3-1.2-0.4c-0.3-0.1-0.6-0.3-0.8-0.4l1-3
		c0.5,0.3,1.1,0.5,1.8,0.7C171.5,30.8,172.4,30.9,173.4,30.9z"/>
	<path fill="#FFFFFF" d="M192.8,17.2h3.7v16.5h-3.7v-7h-6.3v7h-3.7V17.2h3.7v6.3h6.3V17.2z"/>
	<path fill="#FFFFFF" d="M200.3,33.8V17.2h11.2v3.1h-7.4v3.2h6.6v3.1h-6.6v4h8v3.1H200.3z"/>
	<path fill="#FFFFFF" d="M214.8,33.8V17.2H226v3.1h-7.4v3.2h6.6v3.1h-6.6v4h8v3.1H214.8z"/>
	<path fill="#FFFFFF" d="M234.2,17.1c2.5,0,4.4,0.4,5.7,1.3c1.3,0.9,2,2.3,2,4.3c0,2-0.7,3.4-2,4.3c-1.3,0.9-3.2,1.3-5.7,1.3H233
		v5.5h-3.7V17.5c0.8-0.2,1.7-0.3,2.6-0.3S233.5,17.1,234.2,17.1z M234.4,20.2c-0.3,0-0.5,0-0.8,0c-0.3,0-0.5,0-0.7,0v4.8h1.2
		c1.3,0,2.3-0.2,2.9-0.5c0.7-0.3,1-1,1-2c0-0.5-0.1-0.8-0.3-1.1c-0.2-0.3-0.4-0.5-0.7-0.7c-0.3-0.2-0.7-0.3-1.1-0.4
		S235,20.2,234.4,20.2z"/>
</g>
<g>
	<g>
		<path fill="none" d="M9,33.2l-2.6,6.1l0.9,0.9l4.4-5.8C11.4,34.3,10.2,34,9,33.2z"/>
		<path fill="none" d="M9.9,15c-0.1-0.1-0.1-0.7,2.4-2.3c3.2-2,7.8-2,7.8-1.5l0.1,0.3l0.2,0.6c0,0,1.4,4.6,9.7,2.5
			c0,0-0.3-5.4-6.3-5.9c-4.8-0.4-1.2,0.9-1.2,0.9s4.6,0,5.5,4c0,0-5,1.3-7-2.2c0,0,2,2,5.3,1.6c0,0,1-2.2-5.6-2.9
			c0,0-1.2-0.6-3.2-2.6c-1.8-1.8-3.9-2.6-5.7-2.2c0,0-4.1-3.1-5.8-3.3c0-0.1,0,1.5-0.8,1.8C4.4,4.2,4.1,4,4.4,3.6
			c0.5-0.7,0.9-2-0.6-1.3c0,0-2,1.9-1.4,3.8c0.3,1.1,3.9,5.6,5.6,8.7C8.9,14.5,9.7,14.9,9.9,15z M9,5.7C10.4,6.2,11,7.1,11,7.1
			c4.8,0.2,4.9,2.1,4.9,2.4c-2.5,0.7-3.5,1.7-5.6-2C9.8,6.4,9,6.2,8.7,6.1C8.4,6,8.5,5.6,9,5.7z"/>
		<path fill="none" d="M7.4,31.8l-1.6,7.1l2.5-6.2C7.9,32.4,7.6,32.2,7.4,31.8z"/>
		<path fill="none" d="M11.8,36C10.3,37.6,8,40.6,8,40.6l3.9-3.4C11.8,36.8,11.8,36.4,11.8,36z"/>
		<path fill="none" d="M39.1,16.6c0,0-1.2-7.3-7.5-5.9c0,0-0.7-5-7.7-2.9c1.4-0.2,6.1-0.9,7.6,7.7c0,0-6.4,2.7-12.1-1.8
			c-0.9-0.8-2.6-0.5-4.3,0.1c-2,0.7-3.1,3.8-3.1,3.8c-3.8,0.6-3.8,3.1-3.2,4.7c1.3-1.3,2.9-2.5,5.9-1.6c0,0,1.7-3,4.9-3.1
			c0,0,5.6-0.7,7.4,2.2c0,0,10-4,12,4.2c0,0,1.3,7-3.9,8.6c0,0-5.1,1.9-7.5-0.1c0,0-4.8,2.7-9.2,0c0,0-4.4-2.7-1.2-5.9
			c0,0,5.6-4.9,9.2-0.3c0,0,1.2,2.1-1.6,2.4c0,0-2.3,2.2-3.6,0.4c0,0-0.1-1.5,0.7-0.9c0,0,0.4,1,0.8,0.2c0,0,0.2-1.9-1.2-1.5
			c0,0-1.7,0-1.9,2c-0.2,2,1.6,2.3,2.4,2.6c0.8,0.3,4.1,0.5,5.5-1.5c0,0,3.3,1.9,5.8-1.8c0,0,2.6-3.8-1.6-5.5c0,0-3-1-5,0
			c0,0-2.1-2-5.7-1.2c-3.2,0.7-5,2-4.9,2.7c0,0-1.6-0.8-4.1,0.8s-2.4,4.2-1.2,5.8c1.2,1.5,2.8,2.4,3.8,2.8c0,0-1.7,2.1,5.3,4.6
			c7,2.5,8.8-2,9.2-1.3c0,0,5.3,1.4,8.3,0c5.6-2.7,6.2-6,5.3-7.2c0,0,3.8-3,2.7-7.9C44.6,17.9,40.3,16.5,39.1,16.6z"/>
		<path fill="none" d="M12.1,38.1l-3.5,3l0.8,0.7l4.7-0.7C13.2,40.4,12.4,39.5,12.1,38.1z"/>
		<path fill="#363639" d="M9.9,15C9.9,15,9.9,15,9.9,15C9.9,15,9.9,15,9.9,15z"/>
		<path fill="#363639" d="M8.7,6.1C9,6.2,9.8,6.4,10.3,7.4c2,3.8,3.1,2.7,5.6,2c0-0.2-0.1-2.2-4.9-2.4c0,0-0.7-0.9-2.1-1.3
			C8.5,5.6,8.4,6,8.7,6.1z"/>
		<path fill="none" d="M45,15.1c-1.5-0.7-2.7-0.9-2.7-0.9C41.5,10.3,39.2,8.7,37,8c-2.2-0.6-4.2-0.3-4.2-0.3c-1.5-1.3-3.1-2.2-5-2.5
			c-1.9-0.3-4.4,0-7.3,1.4c-1-0.8-2.1-1.7-2.9-2.1C16.7,4.2,16.1,4,16.1,4C15,3.5,14,3.4,13.4,3.4c-0.7,0-1,0.1-1,0.1
			c-1.4-1.1-3.2-2-4.8-2.5C6,0.3,4.8,0.1,4.8,0.1C3.9-0.2,2.9,0.3,1.7,1.4C0.3,2.6,0.1,4.5,0.1,4.5c-0.3,2.3,0.3,2.6,1.7,5.2
			c1.4,2.6,2.4,4.3,3.7,6.3c-1,0.9-2.3,3.7-2.2,5.7c0.2,3.4,1,4.4,2.9,7.6c0.1,0.3,0.1,0.6,0.2,0.8c0.1,0.3,0.2,0.5,0.3,0.7
			c-0.2,1.1-0.5,3.5-1,5.8c-0.5,2.3-1,4.5-1.6,5.4c0,0-0.1,0.2,0,0.3c0.1,0.2,0.3,0.3,0.9,0.3c0,0,2.6,0,5.6,0c3.1,0,6.6,0,8.5,0
			c4.9,0.1,7.6-0.3,9-0.7c1.5-0.5,1.7-0.9,1.7-0.9c3.9,1.6,6.9,1.7,9,1.4c2-0.3,3.1-1,3.1-1c3.6-1.9,5.3-4.3,6.1-6.3
			c0.8-2,0.7-3.6,0.7-3.6c2.3-0.5,3.3-3.5,3.6-6C52.9,19.4,46.5,15.8,45,15.1z M2.4,6.1C1.8,4.2,3.8,2.3,3.8,2.3
			c1.4-0.7,1,0.6,0.6,1.3C4.1,4,4.4,4.2,5.3,3.8C6.1,3.5,6.1,1.9,6.1,2c1.7,0.1,5.8,3.3,5.8,3.3c1.8-0.4,3.9,0.4,5.7,2.2
			c2,2,3.2,2.6,3.2,2.6c6.6,0.7,5.6,2.9,5.6,2.9c-3.3,0.4-5.3-1.6-5.3-1.6c1.9,3.5,7,2.2,7,2.2c-1-4.1-5.5-4-5.5-4s-3.5-1.3,1.2-0.9
			c5.9,0.4,6.3,5.9,6.3,5.9c-8.3,2.1-9.7-2.5-9.7-2.5l-0.2-0.6l-0.1-0.3c0-0.5-4.6-0.5-7.8,1.5c-2.5,1.6-2.5,2.2-2.4,2.3
			c0,0,0,0,0,0c0,0,0,0,0,0c-0.1-0.1-1-0.5-1.9-0.1C6.3,11.7,2.7,7.2,2.4,6.1z M7.4,31.8c0.3,0.3,0.6,0.6,0.9,0.8l-2.5,6.2L7.4,31.8
			z M6.4,39.3L9,33.2c1.2,0.7,2.3,1.1,2.7,1.2l-4.4,5.8L6.4,39.3z M11.8,36c0,0.4,0,0.8,0.1,1.2L8,40.6C8,40.6,10.3,37.6,11.8,36z
			 M9.4,41.8l-0.8-0.7l3.5-3c0.4,1.4,1.1,2.3,2,3L9.4,41.8z M42.7,29.5c0.9,1.2,0.3,4.5-5.3,7.2c-3,1.4-8.3,0-8.3,0
			c-0.4-0.7-2.2,3.8-9.2,1.3c-7-2.5-5.3-4.6-5.3-4.6c-1-0.4-2.7-1.3-3.8-2.8C9.6,29,9.5,26.4,12,24.8s4.1-0.8,4.1-0.8
			c-0.1-0.7,1.7-2,4.9-2.7c3.6-0.8,5.7,1.2,5.7,1.2c2-1,5,0,5,0c4.2,1.7,1.6,5.5,1.6,5.5c-2.4,3.7-5.8,1.8-5.8,1.8
			c-1.4,2-4.7,1.8-5.5,1.5c-0.8-0.3-2.6-0.5-2.4-2.6c0.2-2,1.9-2,1.9-2c1.4-0.4,1.2,1.5,1.2,1.5C22.4,29,22,28,22,28
			c-0.9-0.5-0.7,0.9-0.7,0.9c1.2,1.8,3.6-0.4,3.6-0.4c2.8-0.3,1.6-2.4,1.6-2.4c-3.6-4.6-9.2,0.3-9.2,0.3c-3.3,3.2,1.2,5.9,1.2,5.9
			c4.4,2.7,9.2,0,9.2,0c2.4,2,7.5,0.1,7.5,0.1c5.2-1.6,3.9-8.6,3.9-8.6c-1.9-8.1-12-4.2-12-4.2c-1.9-2.9-7.4-2.2-7.4-2.2
			c-3.2,0.1-4.9,3.1-4.9,3.1c-3-0.9-4.6,0.3-5.9,1.6c-0.5-1.6-0.5-4.1,3.2-4.7c0,0,1.2-3.1,3.1-3.8c1.7-0.6,3.4-0.9,4.3-0.1
			c5.6,4.5,12.1,1.8,12.1,1.8c-1.5-8.6-6.1-7.9-7.6-7.7c7-2,7.7,2.9,7.7,2.9c6.3-1.3,7.5,5.9,7.5,5.9c1.1-0.1,5.4,1.3,6.3,5
			C46.5,26.5,42.7,29.5,42.7,29.5z"/>
	</g>
	<path fill="#FFFFFF" d="M42.7,29.5c0.9,1.2,0.3,4.5-5.3,7.2c-3,1.4-8.3,0-8.3,0c-0.4-0.7-2.2,3.8-9.2,1.3c-7-2.5-5.3-4.6-5.3-4.6
		c-1-0.4-2.7-1.3-3.8-2.8C9.6,29,9.5,26.4,12,24.8s4.1-0.8,4.1-0.8c-0.1-0.7,1.7-2,4.9-2.7c3.6-0.8,5.7,1.2,5.7,1.2c2-1,5,0,5,0
		c4.2,1.7,1.6,5.5,1.6,5.5c-2.4,3.7-5.8,1.8-5.8,1.8c-1.4,2-4.7,1.8-5.5,1.5c-0.8-0.3-2.6-0.5-2.4-2.6c0.2-2,1.9-2,1.9-2
		c1.4-0.4,1.2,1.5,1.2,1.5C22.4,29,22,28,22,28c-0.9-0.5-0.7,0.9-0.7,0.9c1.2,1.8,3.6-0.4,3.6-0.4c2.8-0.3,1.6-2.4,1.6-2.4
		c-3.6-4.6-9.2,0.3-9.2,0.3c-3.3,3.2,1.2,5.9,1.2,5.9c4.4,2.7,9.2,0,9.2,0c2.4,2,7.5,0.1,7.5,0.1c5.2-1.6,3.9-8.6,3.9-8.6
		c-1.9-8.1-12-4.2-12-4.2c-1.9-2.9-7.4-2.2-7.4-2.2c-3.2,0.1-4.9,3.1-4.9,3.1c-3-0.9-4.6,0.3-5.9,1.6c-0.5-1.6-0.5-4.1,3.2-4.7
		c0,0,1.2-3.1,3.1-3.8c1.7-0.6,3.4-0.9,4.3-0.1c5.6,4.5,12.1,1.8,12.1,1.8c-1.5-8.6-6.1-7.9-7.6-7.7c7-2,7.7,2.9,7.7,2.9
		c6.3-1.3,7.5,5.9,7.5,5.9c1.1-0.1,5.4,1.3,6.3,5C46.5,26.5,42.7,29.5,42.7,29.5z"/>
	<path fill="#363639" d="M10.3,7.4c2,3.8,3.1,2.7,5.6,2c0-0.2-0.1-2.2-4.9-2.4L10.3,7.4z"/>
	<path fill="#FFFFFF" d="M9.4,41.8l-0.8-0.7l3.5-3c0.4,1.4,1.1,2.3,2,3L9.4,41.8z"/>
	<path fill="#FFFFFF" d="M6.4,39.3L9,33.2c1.2,0.7,2.3,1.1,2.7,1.2l-4.4,5.8L6.4,39.3z"/>
	<path fill="#FFFFFF" d="M7.4,31.8c0.3,0.3,0.6,0.6,0.9,0.8l-2.5,6.2L7.4,31.8z"/>
	<path fill="none" d="M8,40.6c0,0,2.3-2.9,3.8-4.6c0,0.4,0,0.8,0.1,1.2"/>
	<path fill="#FFFFFF" d="M8,40.6c0,0,2.3-2.9,3.8-4.6c0,0.4,0,0.8,0.1,1.2L8,40.6z"/>
	<path fill="#FFFFFF" d="M2.4,6.1C1.8,4.2,3.8,2.3,3.8,2.3c1.4-0.7,1,0.6,0.6,1.3C4.1,4,4.4,4.2,5.3,3.8C6.1,3.5,6.1,1.9,6.1,2
		c1.7,0.1,5.8,3.3,5.8,3.3c1.8-0.4,3.9,0.4,5.7,2.2c2,2,3.2,2.6,3.2,2.6c6.6,0.7,5.6,2.9,5.6,2.9c-3.3,0.4-5.3-1.6-5.3-1.6
		c1.9,3.5,7,2.2,7,2.2c-1-4.1-5.5-4-5.5-4s-3.5-1.3,1.2-0.9c5.9,0.4,6.3,5.9,6.3,5.9c-8.3,2.1-9.7-2.5-9.7-2.5l-0.2-0.6l-0.1-0.3
		c0-0.5-4.6-0.5-7.8,1.5c-2.5,1.6-2.5,2.2-2.4,2.3c0,0,0,0,0,0c0,0,0,0,0,0c-0.1-0.1-1-0.5-1.9-0.1C6.3,11.7,2.7,7.2,2.4,6.1z
		 M10.3,7.4c2,3.8,3.1,2.7,5.6,2c0-0.2-0.1-2.2-4.9-2.4c0,0-0.7-0.9-2.1-1.3C8.5,5.6,8.4,6,8.7,6.1C9,6.2,9.8,6.4,10.3,7.4z"/>
</g>
</svg>
